<?xml version="1.0" encoding="UTF-8"?>
<!DOCTYPE svg PUBLIC "-//W3C//DTD SVG 1.0//EN" "http://www.w3.org/TR/2001/REC-SVG-20010904/DTD/svg10.dtd">
<!-- Creator: CorelDRAW 2019 -->
<svg xmlns="http://www.w3.org/2000/svg" xml:space="preserve" width="101.6mm" height="101.6mm" version="1.0" style="shape-rendering:geometricPrecision; text-rendering:geometricPrecision; image-rendering:optimizeQuality; fill-rule:evenodd; clip-rule:evenodd"
viewBox="0 0 10160 10160"
 xmlns:xlink="http://www.w3.org/1999/xlink">
 <defs>
  <style type="text/css">
   <![CDATA[
    .fil0 {fill:url(#id0)}
   ]]>
  </style>
  <linearGradient id="id0" gradientUnits="userSpaceOnUse" x1="-0.22" y1="5079.72" x2="10159.78" y2="5079.72">
   <stop offset="0" style="stop-opacity:1; stop-color:#086972"/>
   <stop offset="1" style="stop-opacity:1; stop-color:#32A18F"/>
  </linearGradient>
 </defs>
 <g id="Layer_x0020_1">
  <metadata id="CorelCorpID_0Corel-Layer"/>
  <path class="fil0" d="M-0.22 -0.28l10160 0 0 10160 -10160 0 0 -10160zm1923.13 765.16l6455.85 0c552.98,0 1005.41,452.43 1005.41,1005.42l0 6455.84c0,552.99 -452.43,1005.42 -1005.41,1005.42l-6455.85 0c-552.98,0 -1005.41,-452.43 -1005.41,-1005.42l0 -6455.84c0,-552.99 452.43,-1005.42 1005.41,-1005.42zm1163 2815.27l0 -619.95 -249.11 249.11 -930.93 -930.52 -122.94 122.94 930.53 930.52 -247.49 247.9 619.94 0zm4200.57 0l0 -619.95 249.11 249.11 930.93 -930.52 122.94 122.94 -930.53 930.52 247.49 247.9 -619.94 0zm-4200.57 3101.48l0 619.95 -249.11 -249.11 -930.93 930.52 -122.94 -122.94 930.53 -930.52 -247.49 -247.9 619.94 0zm4200.57 0l0 619.95 249.11 -249.11 930.93 930.52 122.94 -122.94 -930.53 -930.52 247.49 -247.9 -619.94 0zm-4179.42 -1848.24l0 140.07c0,118.44 286.72,308.42 494.75,74.53 67.19,-75.55 79.25,-171.7 127.04,-269.83 260.44,-534.73 864.19,-901.95 1479.32,-901.95 477.7,0 817.83,92.83 1167.29,326.84 -75.68,113.03 -386.72,351.04 -420.22,443.57 -86.45,-7.19 -636.95,-362.21 -1256.9,3.77 -658.99,389.03 -925.12,1462.78 79.35,2060.93 262.34,156.23 611.41,157.62 902.89,88.6 117.7,-27.87 149.53,-54.27 243.96,-106.22 530.77,-291.99 230.21,-669.68 77.39,-669.68 -313.28,0 -230.29,256.81 -723.72,256.81 -142.54,0 -313.05,-95.31 -391.54,-168.76 -262.34,-245.5 -254.86,-619.71 -26.6,-856.37 3.34,-3.46 8.17,-8.4 11.57,-11.79 439.39,-439.39 927.46,36.51 1012.59,59.23 208.26,55.57 333.95,-137.37 450.38,-253.8 130.21,-130.21 243.32,-243.32 373.53,-373.54 274.47,-274.46 344.35,-270.56 344.35,-519.44 0,-144.83 -111.19,-209.46 -166.73,-253.49 -151.11,-119.78 -181.01,-189.59 -447.75,-322.66 -537.43,-268.1 -704.05,-264.3 -1276.52,-264.3 -730.02,0 -1322.7,370.86 -1731.24,930.19 -75.28,103.07 -323.19,447.84 -323.19,587.29z"/>
 </g>
</svg>
