<?xml version="1.0" standalone="no"?>
<!DOCTYPE svg PUBLIC "-//W3C//DTD SVG 20010904//EN"
 "http://www.w3.org/TR/2001/REC-SVG-20010904/DTD/svg10.dtd">
<svg version="1.0" xmlns="http://www.w3.org/2000/svg"
 width="451.000000pt" height="435.000000pt" viewBox="0 0 451.000000 435.000000"
 preserveAspectRatio="xMidYMid meet">
<metadata>
Created by potrace 1.16, written by Peter Selinger 2001-2019
</metadata>
<g transform="translate(0.000000,435.000000) scale(0.100000,-0.100000)"
fill="#000000" stroke="none">
<path d="M1256 4333 c-4 -9 -3 -20 2 -25 12 -12 3233 -11 3245 1 5 5 7 17 4
25 -6 14 -165 16 -1626 16 -1502 0 -1619 -1 -1625 -17z"/>
<path d="M2640 3175 l0 -445 25 0 25 0 0 445 0 445 -25 0 -25 0 0 -445z"/>
<path d="M390 3448 c-24 -16 -40 -38 -50 -68 -9 -25 -24 -59 -33 -77 -23 -43
-22 -107 3 -158 22 -45 86 -113 96 -102 4 4 -7 38 -24 75 -36 77 -40 113 -16
137 23 22 35 15 63 -35 30 -53 36 -43 18 27 l-14 51 34 16 c19 9 54 16 79 16
39 0 47 -4 62 -30 9 -16 20 -30 24 -30 13 0 20 107 9 128 -20 37 -78 64 -149
69 -58 4 -72 2 -102 -19z"/>
<path d="M1705 2977 c-17 -8 -36 -22 -44 -31 -8 -9 -29 -23 -47 -31 -52 -22
-64 -57 -64 -193 0 -101 3 -121 18 -135 16 -15 83 -47 97 -47 11 0 -45 98 -60
103 -9 4 -15 19 -15 39 1 26 8 37 33 53 17 11 41 36 52 57 l20 36 37 -33 c25
-23 60 -41 110 -55 40 -12 79 -23 86 -26 22 -6 14 -52 -13 -70 -14 -9 -25 -23
-25 -31 0 -8 -7 -28 -16 -45 l-16 -31 45 6 c25 4 59 12 76 19 l30 13 -25 58
c-15 34 -26 82 -27 115 -3 74 -58 188 -102 213 -43 25 -114 32 -150 16z"/>
<path d="M515 2919 c-4 -5 1 -31 9 -57 27 -80 37 -191 34 -352 -3 -143 -1
-158 18 -188 l21 -33 22 51 c21 48 21 57 11 148 -10 92 -42 251 -71 352 -7 25
-11 52 -10 61 2 19 -25 33 -34 18z"/>
<path d="M3335 2670 c-85 -19 -165 -102 -165 -170 0 -20 -1 -20 -677 -21
l-678 -1 45 -21 c45 -22 51 -22 704 -24 638 -3 718 -6 750 -34 4 -4 -10 -17
-32 -28 -49 -25 -63 -26 -56 -6 4 10 0 15 -10 15 -26 0 -30 -26 -10 -59 17
-29 54 -43 54 -21 0 6 -4 10 -10 10 -25 0 -6 32 31 50 23 12 42 20 43 18 1 -2
10 -16 20 -32 23 -37 40 -21 25 23 -10 27 -9 35 5 49 13 13 20 14 34 5 13 -8
16 -22 14 -58 -6 -95 31 -130 110 -104 46 15 63 41 73 116 l7 53 446 2 c439 3
447 3 447 23 0 20 -8 20 -451 23 l-452 2 -10 43 c-13 48 -62 104 -101 114 -14
3 -35 12 -46 18 -28 17 -74 23 -110 15z"/>
<path d="M1258 2468 c-13 -35 1 -38 174 -38 133 0 183 4 225 17 29 9 53 20 53
25 0 4 -101 8 -224 8 -170 0 -225 -3 -228 -12z"/>
<path d="M3539 2221 c-20 -4 -51 -17 -70 -28 -19 -12 -56 -33 -84 -46 -66 -32
-112 -79 -182 -184 -32 -48 -61 -91 -65 -97 -4 -6 -34 1 -79 19 -69 27 -73 27
-86 10 -19 -27 -16 -52 7 -68 21 -14 21 -15 -3 -21 -13 -3 -70 -1 -128 4 -167
15 -188 14 -198 -12 -11 -30 -4 -37 55 -53 44 -12 19 -13 -246 -14 -201 -1
-300 -5 -307 -12 -7 -7 -44 -9 -109 -5 -55 3 -274 9 -487 12 -326 5 -387 8
-383 20 5 12 -40 14 -279 14 -183 0 -285 4 -285 10 0 6 14 10 31 10 l32 0 -6
68 c-4 37 -7 121 -7 187 l0 120 -45 -3 c-58 -5 -161 13 -247 43 -73 26 -83 22
-73 -25 5 -21 13 -30 26 -30 26 0 24 -23 -5 -56 l-23 -28 -18 27 c-9 15 -21
27 -25 27 -27 0 -46 -234 -21 -263 17 -21 -20 -439 -52 -597 -9 -41 -20 -138
-26 -215 -14 -192 -17 -683 -4 -696 6 -6 39 -9 74 -7 56 3 64 6 67 24 2 11 -6
28 -18 39 -38 34 -27 74 102 385 l123 294 12 -164 c6 -91 21 -237 32 -325 12
-88 21 -175 21 -193 0 -38 1 -39 104 -47 l78 -7 -6 -39 -6 -39 40 0 40 0 1
413 c0 226 0 537 -1 690 l-1 277 346 0 346 0 -7 -22 c-15 -48 -24 -94 -24
-131 0 -38 21 -92 39 -99 5 -2 2 -29 -6 -64 -12 -49 -19 -61 -32 -57 -14 4
-34 -39 -111 -246 -51 -138 -96 -251 -100 -251 -4 0 -40 88 -80 195 -63 167
-76 195 -94 195 -50 -1 -48 -9 51 -245 l96 -230 -28 -75 c-32 -87 -36 -115
-15 -115 8 0 25 26 41 64 15 35 29 58 33 53 15 -25 56 -144 51 -151 -10 -17
33 -43 62 -37 22 5 34 18 51 55 12 27 22 52 22 55 0 3 -18 -6 -41 -21 l-41
-27 -19 25 c-10 13 -22 35 -25 49 -3 14 -12 48 -21 77 l-17 51 65 155 c35 86
65 154 67 153 1 -2 -9 -51 -23 -109 -14 -59 -25 -115 -25 -126 0 -20 35 -38
84 -43 28 -3 29 -2 114 215 47 119 87 216 89 214 2 -2 -10 -90 -27 -196 -16
-106 -30 -200 -30 -210 0 -22 39 -41 84 -41 26 0 34 5 43 28 8 21 11 -14 12
-160 1 -176 2 -188 19 -188 18 0 19 17 25 278 l7 277 39 130 c22 72 52 173 67
227 21 76 31 98 50 107 13 5 33 29 45 53 18 35 21 54 17 115 l-5 73 674 0 674
0 -2 -55 c-1 -31 -6 -58 -10 -61 -5 -2 -6 -11 -2 -19 3 -8 0 -15 -7 -15 -6 0
-8 -4 -5 -10 3 -5 2 -10 -4 -10 -6 0 -8 -6 -5 -14 3 -9 -12 -32 -36 -56 l-42
-42 -77 6 c-42 4 -141 2 -220 -3 -168 -12 -223 -32 -254 -91 -16 -30 -18 -51
-13 -155 6 -137 37 -394 69 -570 l22 -120 48 -3 c43 -3 48 -5 45 -25 -3 -19
-9 -22 -44 -22 -28 0 -56 -10 -91 -32 -28 -17 -66 -34 -85 -38 -35 -8 -58 -22
-58 -36 0 -5 70 -9 155 -9 l155 0 0 56 c0 48 13 87 86 263 48 113 89 210 92
215 2 5 26 -45 52 -110 74 -187 64 -174 118 -158 25 8 47 16 49 18 3 2 0 73
-6 158 -11 150 -40 287 -65 307 -6 5 -42 21 -81 36 -38 15 -73 30 -77 34 -4 3
37 6 90 6 74 0 106 4 134 19 58 28 115 91 140 154 20 53 22 71 20 238 -3 205
9 288 57 388 56 119 148 192 256 203 30 3 55 9 55 12 0 14 -66 70 -93 80 -16
6 -46 11 -67 11 -29 0 -42 5 -50 20 -6 11 -14 19 -18 19 -4 -1 -23 -4 -43 -8z
m-3033 -771 c32 -161 35 -191 25 -228 -6 -23 -11 -51 -11 -62 0 -16 -5 -18
-32 -14 l-33 6 -79 -214 c-108 -289 -108 -289 -100 -208 3 36 16 151 29 255
13 105 26 213 30 240 3 28 21 109 39 180 19 72 45 175 57 230 l23 100 8 -50
c5 -27 25 -133 44 -235z m231 -202 c-4 -215 -7 -497 -7 -625 l0 -234 -31 18
c-17 10 -34 24 -37 32 -3 7 1 156 8 330 15 347 17 586 6 759 l-8 112 38 0 37
0 -6 -392z m2197 -141 c38 -12 40 -14 72 -109 l32 -97 -79 -208 c-54 -140 -78
-193 -74 -163 3 25 8 119 12 210 5 155 -5 268 -33 363 -6 20 12 21 70 4z"/>
<path d="M2028 1259 c-10 -5 -18 -15 -18 -22 0 -16 299 -730 311 -741 6 -6 13
-6 20 1 8 8 -28 115 -132 392 -78 210 -147 381 -153 381 -6 0 -19 -5 -28 -11z"/>
<path d="M3837 1032 c-15 -9 -27 -20 -27 -25 0 -23 307 -740 318 -745 7 -2 17
-1 22 4 7 7 -267 764 -282 779 -2 2 -16 -4 -31 -13z"/>
<path d="M3673 973 l-23 -4 0 -355 0 -354 40 0 40 0 0 360 c0 396 5 365 -57
353z"/>
<path d="M3451 718 c2 -406 11 -593 29 -593 18 0 26 139 32 563 l4 272 -33 0
-33 0 1 -242z"/>
<path d="M3266 475 c-11 -8 -29 -15 -40 -15 -14 0 -32 -16 -51 -45 -16 -25
-47 -56 -67 -70 -24 -16 -38 -33 -38 -46 0 -18 4 -20 33 -14 29 6 114 38 211
80 36 15 38 18 33 52 -6 37 -32 73 -51 73 -6 0 -20 -7 -30 -15z"/>
</g>
</svg>
